<svg width="38" height="38" viewBox="0 0 38 38" fill="none" xmlns="http://www.w3.org/2000/svg">
<path d="M26.8334 8.23334H11.7999C10.5322 8.23334 9.5 9.253 9.5 10.5165V25.5012C9.5 26.7647 10.5322 27.7843 11.7999 27.7843H24.5223L23.9277 25.7339L25.3637 27.0528L26.7212 28.2942L29.1333 30.4V10.5165C29.1333 9.253 28.1012 8.23334 26.8334 8.23334Z" fill="white"/>
<path fill-rule="evenodd" clip-rule="evenodd" d="M22.5033 22.7082C22.5033 22.7082 22.0994 22.2316 21.7629 21.8104C23.2326 21.4003 23.7935 20.4915 23.7935 20.4915C23.3335 20.7907 22.896 21.0013 22.5033 21.1454C21.9424 21.3782 21.4039 21.5333 20.8766 21.622C19.7995 21.8215 18.8123 21.7661 17.9708 21.6109C17.3314 21.489 16.7816 21.3117 16.3216 21.1343C16.0636 21.0346 15.7831 20.9127 15.5027 20.7575C15.4858 20.7464 15.469 20.7381 15.4522 20.7298C15.4353 20.7215 15.4185 20.7132 15.4017 20.7021C15.3792 20.691 15.368 20.6799 15.3568 20.6688C15.1549 20.558 15.0427 20.4804 15.0427 20.4804C15.0427 20.4804 15.5812 21.3671 17.006 21.7882C16.6694 22.2094 16.2543 22.7082 16.2543 22.7082C13.7749 22.6306 12.8325 21.0235 12.8325 21.0235C12.8325 17.4547 14.4481 14.5619 14.4481 14.5619C16.0636 13.3649 17.6006 13.3982 17.6006 13.3982L17.7128 13.5312C15.6934 14.1075 14.7622 14.9831 14.7622 14.9831C14.7622 14.9831 15.009 14.8501 15.4241 14.6617C16.6246 14.1407 17.5782 13.9967 17.9708 13.9634L17.996 13.9592C18.0526 13.9497 18.1028 13.9412 18.1616 13.9412C18.8459 13.8526 19.62 13.8304 20.4278 13.9191C21.4936 14.041 22.638 14.3513 23.8047 14.9831C23.8047 14.9831 22.9184 14.1518 21.0112 13.5755L21.1683 13.3982C21.1683 13.3982 22.7053 13.3649 24.3208 14.5619C24.3208 14.5619 25.9364 17.4547 25.9364 21.0235C25.9364 21.0235 24.9827 22.6306 22.5033 22.7082ZM17.6021 17.7334C16.9677 17.7334 16.4668 18.3039 16.4668 19C16.4668 19.6961 16.9788 20.2667 17.6021 20.2667C18.2365 20.2667 18.7374 19.6961 18.7374 19C18.7486 18.3039 18.2365 17.7334 17.6021 17.7334ZM20.5305 19C20.5305 18.3039 21.0314 17.7334 21.6658 17.7334C22.3002 17.7334 22.8011 18.3039 22.8011 19C22.8011 19.6961 22.3002 20.2667 21.6658 20.2667C21.0425 20.2667 20.5305 19.6961 20.5305 19Z" fill="black"/>
</svg>
