<svg width="161" height="22" viewBox="0 0 161 22" fill="none" xmlns="http://www.w3.org/2000/svg">
<path d="M0.71 22V0.399999H3.14V9.97H20.39V0.399999H22.85V22H20.39V12.43H3.14V22H0.71ZM27.7576 22V4C27.7576 3 28.1076 2.15 28.8076 1.45C29.5076 0.749999 30.3576 0.399999 31.3576 0.399999H45.7576C46.7576 0.399999 47.6076 0.749999 48.3076 1.45C49.0076 2.15 49.3576 3 49.3576 4V22H46.9276V14.11H30.1876V22H27.7576ZM30.1876 11.68H46.9276V4C46.9276 3.68 46.8076 3.41 46.5676 3.19C46.3476 2.95 46.0776 2.83 45.7576 2.83H31.3576C31.0376 2.83 30.7576 2.95 30.5176 3.19C30.2976 3.41 30.1876 3.68 30.1876 4V11.68ZM54.3657 22V0.399999H71.4357C72.4357 0.399999 73.2857 0.749999 73.9857 1.45C74.6857 2.15 75.0357 3 75.0357 4V8.59C75.0357 8.87 74.9957 9.15 74.9157 9.43C74.8557 9.69 74.7657 9.94 74.6457 10.18C75.0857 10.84 75.4157 11.41 75.6357 11.89C75.8557 12.37 75.9657 12.86 75.9657 13.36V18.4C75.9657 19.4 75.6157 20.25 74.9157 20.95C74.2157 21.65 73.3657 22 72.3657 22H54.3657ZM57.9657 19.57H72.3657C72.6857 19.57 72.9557 19.46 73.1757 19.24C73.4157 19 73.5357 18.72 73.5357 18.4V13.36C73.5357 13.04 73.4157 12.77 73.1757 12.55C72.9557 12.31 72.6857 12.19 72.3657 12.19H57.9657C57.6457 12.19 57.3657 12.31 57.1257 12.55C56.9057 12.77 56.7957 13.04 56.7957 13.36V18.4C56.7957 18.72 56.9057 19 57.1257 19.24C57.3657 19.46 57.6457 19.57 57.9657 19.57ZM57.9657 9.76H71.4357C71.7557 9.76 72.0257 9.65 72.2457 9.43C72.4657 9.19 72.5757 8.91 72.5757 8.59V4C72.5757 3.68 72.4657 3.41 72.2457 3.19C72.0257 2.95 71.7557 2.83 71.4357 2.83H57.9657C57.6457 2.83 57.3657 2.95 57.1257 3.19C56.9057 3.41 56.7957 3.68 56.7957 4V8.59C56.7957 8.91 56.9057 9.19 57.1257 9.43C57.3657 9.65 57.6457 9.76 57.9657 9.76ZM80.6166 22V0.399999H83.0766V22H80.6166ZM97.1727 22V2.83H87.5727V0.399999H109.173V2.83H99.6027V22H97.1727ZM112.976 22V4C112.976 3 113.326 2.15 114.026 1.45C114.726 0.749999 115.576 0.399999 116.576 0.399999H130.976C131.976 0.399999 132.826 0.749999 133.526 1.45C134.226 2.15 134.576 3 134.576 4V22H132.146V14.11H115.406V22H112.976ZM115.406 11.68H132.146V4C132.146 3.68 132.026 3.41 131.786 3.19C131.566 2.95 131.296 2.83 130.976 2.83H116.576C116.256 2.83 115.976 2.95 115.736 3.19C115.516 3.41 115.406 3.68 115.406 4V11.68ZM148.014 22V2.83H138.414V0.399999H160.014V2.83H150.444V22H148.014Z" fill="white"/>
</svg>
