<svg width="38" height="38" viewBox="0 0 38 38" fill="none" xmlns="http://www.w3.org/2000/svg">
<path d="M19 7C12.928 7 8 11.928 8 18C8 24.072 12.928 29 19 29C25.072 29 30 24.072 30 18C30 11.928 25.072 7 19 7ZM20.1 25.7H17.9V23.5H20.1V25.7ZM22.377 17.175L21.387 18.187C20.595 18.99 20.1 19.65 20.1 21.3H17.9V20.75C17.9 19.54 18.395 18.44 19.187 17.637L20.551 16.251C20.958 15.855 21.2 15.305 21.2 14.7C21.2 13.49 20.21 12.5 19 12.5C17.79 12.5 16.8 13.49 16.8 14.7H14.6C14.6 12.269 16.569 10.3 19 10.3C21.431 10.3 23.4 12.269 23.4 14.7C23.4 15.668 23.004 16.548 22.377 17.175Z" fill="#23EEE2"/>
</svg>
