<svg width="38" height="38" viewBox="0 0 38 38" fill="none" xmlns="http://www.w3.org/2000/svg">
<path fill-rule="evenodd" clip-rule="evenodd" d="M13.7107 11.7346C13.6828 10.4662 12.7757 9.5 11.3027 9.5C9.82969 9.5 8.8667 10.4662 8.8667 11.7346C8.8667 12.9768 9.80123 13.9708 11.2468 13.9708H11.2743C12.7757 13.9708 13.7107 12.9768 13.7107 11.7346ZM13.4266 15.7366H9.12081V28.6738H13.4266V15.7366ZM23.9977 15.4329C26.8311 15.4329 28.9553 17.2823 28.9553 21.256L28.9551 28.6738H24.6494V21.7524C24.6494 20.0139 24.0264 18.8276 22.4676 18.8276C21.2781 18.8276 20.5695 19.6274 20.2583 20.3998C20.1445 20.6766 20.1165 21.0623 20.1165 21.449V28.6742H15.8102C15.8102 28.6742 15.867 16.9509 15.8102 15.737H20.1165V17.5694C20.688 16.6885 21.7115 15.4329 23.9977 15.4329Z" fill="white"/>
</svg>
